<?xml version="1.0" standalone="no"?>
<!DOCTYPE svg PUBLIC "-//W3C//DTD SVG 20010904//EN"
 "http://www.w3.org/TR/2001/REC-SVG-20010904/DTD/svg10.dtd">
<svg version="1.0" xmlns="http://www.w3.org/2000/svg"
 width="250.000000pt" height="300.000000pt" viewBox="0 0 250.000000 300.000000"
 preserveAspectRatio="xMidYMid meet">

<g transform="translate(0.000000,300.000000) scale(0.100000,-0.100000)"
fill="#000000" stroke="none">
<path d="M332 2985 c-39 -17 -297 -266 -318 -307 -12 -23 -14 -223 -14 -1280
l0 -1253 23 -40 c12 -22 44 -55 71 -73 l49 -32 947 2 948 3 44 30 c23 17 53
49 65 70 l23 40 0 1191 0 1190 -29 46 c-20 31 -44 53 -77 69 l-49 24 -878 5
-878 5 79 78 79 77 912 0 c986 0 947 2 985 -52 14 -20 16 -154 16 -1253 l0
-1230 85 85 85 85 0 1190 -1 1190 -23 45 c-13 26 -41 58 -65 75 l-43 30 -1001
2 c-859 2 -1007 0 -1035 -12z m2038 -60 c19 -12 43 -36 55 -55 20 -35 20 -49
23 -1207 l2 -1172 -29 -30 c-17 -17 -33 -31 -36 -31 -3 0 -5 528 -5 1174 l0
1173 -23 34 c-49 73 16 69 -1027 69 l-936 0 -97 -97 c-101 -100 -113 -125 -79
-156 16 -15 101 -17 913 -19 859 -3 895 -4 922 -22 60 -41 57 33 57 -1259 l0
-1184 -32 -35 c-18 -20 -48 -41 -67 -47 -46 -15 -1777 -15 -1841 0 -54 12 -97
50 -110 98 -6 23 -10 479 -10 1244 0 1006 2 1213 14 1240 20 47 264 284 301
292 17 4 35 8 40 10 6 2 442 3 970 2 946 -2 961 -2 995 -22z"/>
<path d="M935 2016 c-339 -78 -575 -370 -575 -710 0 -331 219 -611 545 -697
138 -37 392 -17 443 35 15 15 15 17 0 33 -16 15 -20 15 -60 0 -163 -62 -408
-32 -560 68 -39 26 -40 27 -33 73 10 74 16 92 30 92 8 0 23 12 35 27 19 25 21
35 15 96 l-7 69 46 -26 c50 -28 76 -32 92 -16 8 8 15 6 24 -5 7 -8 27 -15 45
-15 27 0 32 -3 28 -18 -5 -22 59 -186 83 -214 21 -22 45 -23 87 -1 39 20 48
31 88 108 17 33 40 70 51 82 12 13 24 39 27 59 5 30 13 40 56 63 180 96 205
118 205 180 0 50 -17 77 -62 106 l-28 17 25 20 c14 11 25 29 25 40 0 21 0 21
25 -2 14 -13 34 -48 46 -79 33 -89 44 -96 84 -56 l25 24 1 -32 c5 -204 -56
-363 -193 -501 -69 -70 -79 -96 -36 -96 16 0 43 20 79 58 147 152 209 303 209
506 0 132 -18 211 -71 322 -89 184 -258 325 -454 379 -83 22 -264 28 -340 11z
m105 -81 c-19 -19 -39 -35 -46 -35 -7 0 -48 -14 -92 -30 l-80 -31 -31 -75 -31
-74 40 -58 c26 -37 39 -64 35 -74 -7 -18 -50 -47 -184 -123 -80 -45 -85 -46
-98 -29 -18 24 -17 29 11 47 13 9 40 44 59 79 19 35 51 83 71 108 46 58 49
113 10 159 -14 17 -23 35 -20 40 10 16 106 68 168 91 65 24 127 37 182 39 l40
1 -34 -35z m230 8 c89 -24 220 -100 280 -162 71 -72 137 -179 160 -257 11 -36
10 -45 -5 -68 l-18 -27 -12 28 c-20 47 -68 91 -108 98 -49 10 -89 -15 -85 -52
5 -42 -22 -50 -73 -24 -49 26 -59 37 -59 68 0 46 -104 125 -144 110 -29 -11
-18 -46 18 -61 45 -19 50 -31 21 -44 -19 -9 -31 -8 -52 3 -33 17 -71 19 -107
5 -22 -8 -30 -5 -51 16 -22 22 -33 25 -71 22 -24 -2 -44 -1 -44 2 1 17 21 30
55 38 31 6 41 13 43 30 2 13 -3 25 -12 28 -26 10 -84 -5 -113 -30 l-27 -23
-19 24 c-19 24 -19 25 0 76 22 56 12 50 181 108 21 7 48 31 74 65 46 61 46 61
168 27z m-616 -175 c23 -33 20 -59 -13 -98 -16 -20 -44 -63 -63 -97 -21 -38
-51 -74 -76 -93 -47 -34 -48 -37 -27 -67 21 -30 -1 -42 -28 -15 -19 20 -20 25
-8 77 17 77 81 200 136 263 26 28 50 52 55 52 5 0 16 -10 24 -22z m331 -248
c3 -11 9 -20 13 -20 4 0 13 -4 20 -9 11 -6 6 -29 -22 -111 -45 -130 -51 -135
-117 -98 l-38 21 45 28 44 29 0 83 c0 46 3 87 7 90 13 14 42 6 48 -13z m181
-27 c-3 -10 -19 -61 -35 -113 -48 -158 -84 -264 -94 -277 -14 -19 -67 -17 -67
3 0 14 117 379 127 397 2 4 20 7 39 7 29 0 34 -3 30 -17z m-288 -49 l-3 -56
-77 -41 -77 -41 77 -42 77 -41 3 -57 c2 -31 -1 -56 -5 -56 -5 0 -42 20 -82 45
-40 25 -76 45 -79 46 -4 0 -32 17 -62 37 -43 30 -56 44 -58 67 -3 29 3 34 135
112 76 45 142 82 146 82 4 1 7 -24 5 -55z m494 -8 c127 -73 169 -103 174 -123
3 -12 3 -26 0 -32 -6 -10 -93 -71 -101 -71 -3 0 -42 -22 -89 -50 -47 -27 -87
-50 -90 -50 -3 0 -6 25 -6 55 l0 55 75 37 c41 21 75 40 75 43 0 3 -16 13 -35
22 -18 9 -52 28 -74 43 -40 25 -41 27 -41 81 l0 56 38 -23 c20 -12 53 -32 74
-43z m-124 -104 c35 -31 36 -34 18 -45 -52 -32 -66 -55 -66 -110 0 -79 16
-117 52 -124 29 -6 29 -6 9 -27 -10 -11 -34 -50 -52 -85 -29 -55 -72 -102 -83
-90 -2 2 -18 40 -35 84 l-32 81 23 50 c13 27 43 113 68 191 32 101 47 136 53
124 5 -9 25 -31 45 -49z m-708 -25 c0 -20 -5 -23 -37 -23 -21 1 -48 -3 -60 -7
-20 -7 -23 -5 -23 20 0 28 1 29 60 31 57 2 60 1 60 -21z m11 -122 c33 -25 78
-49 100 -54 23 -5 45 -13 49 -18 4 -4 10 -38 14 -74 l6 -65 -34 -16 c-30 -15
-34 -22 -40 -72 -4 -31 -11 -58 -16 -61 -14 -8 -105 111 -141 185 -18 36 -40
94 -50 130 l-17 65 27 12 c38 17 38 17 102 -32z"/>
<path d="M1091 1686 c-17 -20 -2 -48 23 -44 24 3 34 37 14 49 -18 12 -24 11
-37 -5z"/>
<path d="M1452 1118 c-7 -7 -12 -17 -12 -24 0 -7 -15 -22 -34 -33 -41 -25 -42
-29 -51 -115 -8 -77 7 -106 56 -106 36 0 54 25 85 126 22 70 24 87 14 123 -11
42 -33 54 -58 29z m-13 -125 c0 -10 -7 -34 -15 -53 -9 -22 -12 -26 -9 -10 2
14 5 37 5 53 0 15 5 27 10 27 6 0 10 -8 9 -17z"/>
<path d="M1410 725 c-17 -20 -5 -45 20 -45 11 0 23 7 26 15 6 15 -11 45 -26
45 -4 0 -13 -7 -20 -15z"/>
</g>
</svg>
